<svg width="25" height="48" viewBox="0 0 25 48" fill="none" xmlns="http://www.w3.org/2000/svg">
<path d="M24.8909 1.40745C24.8909 0.63016 24.2607 0 23.4834 0H21.9703C21.193 0 20.5629 0.63016 20.5629 1.40745C20.5629 1.94978 20.8701 2.41959 21.3195 2.65463V14.4811H11.2686V12.799C11.2686 12.0217 10.6384 11.3916 9.86113 11.3916C9.08384 11.3916 8.45368 12.0217 8.45368 12.799V14.4811H5.63879V12.799C5.63879 12.0217 5.00863 11.3916 4.23135 11.3916C3.45406 11.3916 2.8239 12.0217 2.8239 12.799V14.4811H1.40745C0.63016 14.4811 0 15.1113 0 15.8886V41.1419C0 44.9295 3.07048 48 6.85811 48H17.2851C21.0727 48 24.1432 44.9295 24.1432 41.1419L24.1343 2.65463C24.5838 2.41959 24.8909 1.94969 24.8909 1.40745V1.40745ZM8.82102 41.1947H7.0711C6.29382 41.1947 5.66366 40.5646 5.66366 39.7873C5.66366 39.01 6.29382 38.3798 7.0711 38.3798H8.82102C9.59831 38.3798 10.2285 39.01 10.2285 39.7873C10.2285 40.5646 9.59831 41.1947 8.82102 41.1947ZM8.82102 35.5649H7.0711C6.29382 35.5649 5.66366 34.9348 5.66366 34.1575C5.66366 33.3802 6.29382 32.75 7.0711 32.75H8.82102C9.59831 32.75 10.2285 33.3802 10.2285 34.1575C10.2285 34.9348 9.59831 35.5649 8.82102 35.5649ZM16.3274 41.1947H14.5775C13.8002 41.1947 13.17 40.5646 13.17 39.7873C13.17 39.01 13.8002 38.3798 14.5775 38.3798H16.3274C17.1047 38.3798 17.7348 39.01 17.7348 39.7873C17.7348 40.5646 17.1047 41.1947 16.3274 41.1947ZM16.3274 35.5649H14.5775C13.8002 35.5649 13.17 34.9348 13.17 34.1575C13.17 33.3802 13.8002 32.75 14.5775 32.75H16.3274C17.1047 32.75 17.7348 33.3802 17.7348 34.1575C17.7348 34.9348 17.1047 35.5649 16.3274 35.5649ZM18.4798 28.5277C18.4798 29.305 17.8496 29.9352 17.0723 29.9352H7.07101C6.29372 29.9352 5.66356 29.305 5.66356 28.5277V22.6846C5.66356 21.9073 6.29372 21.2771 7.07101 21.2771H17.0723C17.8496 21.2771 18.4798 21.9073 18.4798 22.6846V28.5277Z" fill="#FFCB21"/>
<path d="M8.47852 24.092H15.6649V27.1203H8.47852V24.092Z" fill="#FFCB21"/>
</svg>
