<svg width="52" height="52" viewBox="0 0 52 52" fill="none" xmlns="http://www.w3.org/2000/svg">
<g clip-path="url(#clip0_74277_16797)">
<path d="M51.1686 34.7165L28.0067 11.5551C27.4715 11.0198 26.7579 10.726 25.9804 10.726C25.2186 10.726 24.5046 11.0198 23.9702 11.5551L0.829883 34.6945C0.294665 35.2302 0 35.9442 0 36.706C0 37.4678 0.294243 38.1823 0.829883 38.7175L2.53404 40.4217C3.06926 40.9569 3.78372 41.2524 4.54554 41.2524C5.30736 41.2524 6.02141 40.9569 6.55705 40.4217L25.9885 20.9903L45.4415 40.4441C45.9767 40.9789 46.6907 41.274 47.453 41.274C48.2148 41.274 48.9284 40.9789 49.4641 40.4441L51.1686 38.7391C52.2771 37.6302 52.2771 35.8254 51.1686 34.7165Z" fill="url(#paint0_linear_74277_16797)"/>
</g>
<defs>
<linearGradient id="paint0_linear_74277_16797" x1="26" y1="10.726" x2="26" y2="41.274" gradientUnits="userSpaceOnUse">
<stop stop-color="#9293F8"/>
<stop offset="1" stop-color="#D08DF8"/>
</linearGradient>
<clipPath id="clip0_74277_16797">
<rect width="52" height="52" fill="white"/>
</clipPath>
</defs>
</svg>
