<svg width="52" height="52" viewBox="0 0 52 52" fill="none" xmlns="http://www.w3.org/2000/svg">
<g clip-path="url(#clip0_74277_16802)">
<path d="M0.831371 17.2835L23.9933 40.4449C24.5285 40.9802 25.2421 41.274 26.0196 41.274C26.7814 41.274 27.4954 40.9802 28.0298 40.4449L51.1701 17.3055C51.7053 16.7698 52 16.0558 52 15.294C52 14.5322 51.7058 13.8177 51.1701 13.2825L49.466 11.5783C48.9307 11.0431 48.2163 10.7476 47.4545 10.7476C46.6926 10.7476 45.9786 11.0431 45.443 11.5783L26.0115 31.0097L6.55853 11.5559C6.02332 11.0211 5.30927 10.726 4.54703 10.726C3.78521 10.726 3.07159 11.0211 2.53595 11.5559L0.831371 13.2609C-0.277111 14.3698 -0.277111 16.1746 0.831371 17.2835Z" fill="url(#paint0_linear_74277_16802)"/>
</g>
<defs>
<linearGradient id="paint0_linear_74277_16802" x1="26" y1="41.274" x2="26" y2="10.726" gradientUnits="userSpaceOnUse">
<stop stop-color="#9293F8"/>
<stop offset="1" stop-color="#D08DF8"/>
</linearGradient>
<clipPath id="clip0_74277_16802">
<rect width="52" height="52" fill="white" transform="translate(52 52) rotate(-180)"/>
</clipPath>
</defs>
</svg>
