<svg width="184" height="43" viewBox="0 0 184 43" fill="none" xmlns="http://www.w3.org/2000/svg">
<path d="M47.7656 23.3828H49.2656C49.1875 24.1016 48.9818 24.7448 48.6484 25.3125C48.3151 25.8802 47.8438 26.3307 47.2344 26.6641C46.625 26.9922 45.8646 27.1562 44.9531 27.1562C44.2865 27.1562 43.6797 27.0312 43.1328 26.7812C42.5911 26.5312 42.125 26.1771 41.7344 25.7188C41.3438 25.2552 41.0417 24.7005 40.8281 24.0547C40.6198 23.4036 40.5156 22.6797 40.5156 21.8828V20.75C40.5156 19.9531 40.6198 19.2318 40.8281 18.5859C41.0417 17.9349 41.3464 17.3776 41.7422 16.9141C42.1432 16.4505 42.625 16.0938 43.1875 15.8438C43.75 15.5938 44.3828 15.4688 45.0859 15.4688C45.9453 15.4688 46.6719 15.6302 47.2656 15.9531C47.8594 16.276 48.3203 16.724 48.6484 17.2969C48.9818 17.8646 49.1875 18.5234 49.2656 19.2734H47.7656C47.6927 18.7422 47.5573 18.2865 47.3594 17.9062C47.1615 17.5208 46.8802 17.224 46.5156 17.0156C46.151 16.8073 45.6745 16.7031 45.0859 16.7031C44.5807 16.7031 44.1354 16.7995 43.75 16.9922C43.3698 17.1849 43.0495 17.4583 42.7891 17.8125C42.5339 18.1667 42.3411 18.5911 42.2109 19.0859C42.0807 19.5807 42.0156 20.1302 42.0156 20.7344V21.8828C42.0156 22.4401 42.0729 22.9635 42.1875 23.4531C42.3073 23.9427 42.487 24.3724 42.7266 24.7422C42.9661 25.112 43.2708 25.4036 43.6406 25.6172C44.0104 25.8255 44.4479 25.9297 44.9531 25.9297C45.5938 25.9297 46.1042 25.8281 46.4844 25.625C46.8646 25.4219 47.151 25.1302 47.3438 24.75C47.5417 24.3698 47.6823 23.9141 47.7656 23.3828ZM55.0703 23.2812H52.2969L52.2812 22.125H54.5469C54.9948 22.125 55.3672 22.0807 55.6641 21.9922C55.9661 21.9036 56.1927 21.7708 56.3438 21.5938C56.4948 21.4167 56.5703 21.1979 56.5703 20.9375C56.5703 20.7344 56.526 20.5573 56.4375 20.4062C56.3542 20.25 56.2266 20.1224 56.0547 20.0234C55.8828 19.9193 55.6693 19.8438 55.4141 19.7969C55.1641 19.7448 54.8698 19.7188 54.5312 19.7188H52.6797V27H51.2344V18.5469H54.5312C55.0677 18.5469 55.5495 18.5938 55.9766 18.6875C56.4089 18.7812 56.776 18.9245 57.0781 19.1172C57.3854 19.3047 57.6198 19.5443 57.7812 19.8359C57.9427 20.1276 58.0234 20.4714 58.0234 20.8672C58.0234 21.1224 57.9714 21.3646 57.8672 21.5938C57.763 21.8229 57.6094 22.026 57.4062 22.2031C57.2031 22.3802 56.9531 22.526 56.6562 22.6406C56.3594 22.75 56.0182 22.8203 55.6328 22.8516L55.0703 23.2812ZM55.0703 27H51.7734L52.4922 25.8281H55.0703C55.4714 25.8281 55.8047 25.7786 56.0703 25.6797C56.3359 25.5755 56.5339 25.4297 56.6641 25.2422C56.7995 25.0495 56.8672 24.8203 56.8672 24.5547C56.8672 24.2891 56.7995 24.0625 56.6641 23.875C56.5339 23.6823 56.3359 23.5365 56.0703 23.4375C55.8047 23.3333 55.4714 23.2812 55.0703 23.2812H52.875L52.8906 22.125H55.6328L56.1562 22.5625C56.6198 22.599 57.013 22.7135 57.3359 22.9062C57.6589 23.099 57.9036 23.3438 58.0703 23.6406C58.237 23.9323 58.3203 24.25 58.3203 24.5938C58.3203 24.9896 58.2448 25.3385 58.0938 25.6406C57.9479 25.9427 57.7344 26.1953 57.4531 26.3984C57.1719 26.5964 56.8307 26.7474 56.4297 26.8516C56.0286 26.9505 55.5755 27 55.0703 27ZM59.875 22.8672V22.6875C59.875 22.0781 59.9635 21.513 60.1406 20.9922C60.3177 20.4661 60.5729 20.0104 60.9062 19.625C61.2396 19.2344 61.6432 18.9323 62.1172 18.7188C62.5911 18.5 63.1224 18.3906 63.7109 18.3906C64.3047 18.3906 64.8385 18.5 65.3125 18.7188C65.7917 18.9323 66.1979 19.2344 66.5312 19.625C66.8698 20.0104 67.1276 20.4661 67.3047 20.9922C67.4818 21.513 67.5703 22.0781 67.5703 22.6875V22.8672C67.5703 23.4766 67.4818 24.0417 67.3047 24.5625C67.1276 25.0833 66.8698 25.5391 66.5312 25.9297C66.1979 26.3151 65.7943 26.6172 65.3203 26.8359C64.8516 27.0495 64.3203 27.1562 63.7266 27.1562C63.1328 27.1562 62.599 27.0495 62.125 26.8359C61.651 26.6172 61.2448 26.3151 60.9062 25.9297C60.5729 25.5391 60.3177 25.0833 60.1406 24.5625C59.9635 24.0417 59.875 23.4766 59.875 22.8672ZM61.3203 22.6875V22.8672C61.3203 23.2891 61.3698 23.6875 61.4688 24.0625C61.5677 24.4323 61.7161 24.7604 61.9141 25.0469C62.1172 25.3333 62.3698 25.5599 62.6719 25.7266C62.974 25.888 63.3255 25.9688 63.7266 25.9688C64.1224 25.9688 64.4688 25.888 64.7656 25.7266C65.0677 25.5599 65.3177 25.3333 65.5156 25.0469C65.7135 24.7604 65.862 24.4323 65.9609 24.0625C66.0651 23.6875 66.1172 23.2891 66.1172 22.8672V22.6875C66.1172 22.2708 66.0651 21.8776 65.9609 21.5078C65.862 21.1328 65.7109 20.8021 65.5078 20.5156C65.3099 20.224 65.0599 19.9948 64.7578 19.8281C64.4609 19.6615 64.112 19.5781 63.7109 19.5781C63.3151 19.5781 62.9661 19.6615 62.6641 19.8281C62.3672 19.9948 62.1172 20.224 61.9141 20.5156C61.7161 20.8021 61.5677 21.1328 61.4688 21.5078C61.3698 21.8776 61.3203 22.2708 61.3203 22.6875ZM71.0938 22.9688H72.6562L70.2109 27H68.6484L71.0938 22.9688ZM72.3047 18.5469H75.8359V27H74.3906V19.7188H72.3047C71.8932 19.7188 71.5573 19.7891 71.2969 19.9297C71.0365 20.0651 70.8464 20.2422 70.7266 20.4609C70.6068 20.6797 70.5469 20.9062 70.5469 21.1406C70.5469 21.3698 70.6016 21.5911 70.7109 21.8047C70.8203 22.013 70.9922 22.1849 71.2266 22.3203C71.4609 22.4557 71.763 22.5234 72.1328 22.5234H74.7812V23.7109H72.1328C71.6484 23.7109 71.2188 23.6458 70.8438 23.5156C70.4688 23.3854 70.151 23.2057 69.8906 22.9766C69.6302 22.7422 69.4323 22.4688 69.2969 22.1562C69.1615 21.8385 69.0938 21.4948 69.0938 21.125C69.0938 20.7552 69.1641 20.4141 69.3047 20.1016C69.4505 19.7891 69.6589 19.5156 69.9297 19.2812C70.2057 19.0469 70.5417 18.8672 70.9375 18.7422C71.3385 18.612 71.7943 18.5469 72.3047 18.5469ZM85.5156 25.9688C85.8594 25.9688 86.1771 25.8984 86.4688 25.7578C86.7604 25.6172 87 25.4245 87.1875 25.1797C87.375 24.9297 87.4818 24.6458 87.5078 24.3281H88.8828C88.8568 24.8281 88.6875 25.2943 88.375 25.7266C88.0677 26.1536 87.6641 26.5 87.1641 26.7656C86.6641 27.026 86.1146 27.1562 85.5156 27.1562C84.8802 27.1562 84.3255 27.0443 83.8516 26.8203C83.3828 26.5964 82.9922 26.2891 82.6797 25.8984C82.3724 25.5078 82.1406 25.0599 81.9844 24.5547C81.8333 24.0443 81.7578 23.5052 81.7578 22.9375V22.6094C81.7578 22.0417 81.8333 21.5052 81.9844 21C82.1406 20.4896 82.3724 20.0391 82.6797 19.6484C82.9922 19.2578 83.3828 18.9505 83.8516 18.7266C84.3255 18.5026 84.8802 18.3906 85.5156 18.3906C86.1771 18.3906 86.7552 18.526 87.25 18.7969C87.7448 19.0625 88.1328 19.4271 88.4141 19.8906C88.7005 20.349 88.8568 20.8698 88.8828 21.4531H87.5078C87.4818 21.1042 87.3828 20.7891 87.2109 20.5078C87.0443 20.2266 86.8151 20.0026 86.5234 19.8359C86.237 19.6641 85.901 19.5781 85.5156 19.5781C85.0729 19.5781 84.7005 19.6667 84.3984 19.8438C84.1016 20.0156 83.8646 20.25 83.6875 20.5469C83.5156 20.8385 83.3906 21.1641 83.3125 21.5234C83.2396 21.8776 83.2031 22.2396 83.2031 22.6094V22.9375C83.2031 23.3073 83.2396 23.6719 83.3125 24.0312C83.3854 24.3906 83.5078 24.7161 83.6797 25.0078C83.8568 25.2995 84.0938 25.5339 84.3906 25.7109C84.6927 25.8828 85.0677 25.9688 85.5156 25.9688ZM93.9531 18.5469V27H92.5V18.5469H93.9531ZM96.7891 18.5469V19.7188H89.7188V18.5469H96.7891ZM103.07 25.5547V21.2031C103.07 20.8698 103.003 20.5807 102.867 20.3359C102.737 20.0859 102.539 19.8932 102.273 19.7578C102.008 19.6224 101.68 19.5547 101.289 19.5547C100.924 19.5547 100.604 19.6172 100.328 19.7422C100.057 19.8672 99.8438 20.0312 99.6875 20.2344C99.5365 20.4375 99.4609 20.6562 99.4609 20.8906H98.0156C98.0156 20.5885 98.0938 20.2891 98.25 19.9922C98.4062 19.6953 98.6302 19.4271 98.9219 19.1875C99.2188 18.9427 99.5729 18.75 99.9844 18.6094C100.401 18.4635 100.865 18.3906 101.375 18.3906C101.99 18.3906 102.531 18.4948 103 18.7031C103.474 18.9115 103.844 19.2266 104.109 19.6484C104.38 20.0651 104.516 20.5885 104.516 21.2188V25.1562C104.516 25.4375 104.539 25.737 104.586 26.0547C104.638 26.3724 104.714 26.6458 104.812 26.875V27H103.305C103.232 26.8333 103.174 26.612 103.133 26.3359C103.091 26.0547 103.07 25.7943 103.07 25.5547ZM103.32 21.875L103.336 22.8906H101.875C101.464 22.8906 101.096 22.9245 100.773 22.9922C100.451 23.0547 100.18 23.151 99.9609 23.2812C99.7422 23.4115 99.5755 23.5755 99.4609 23.7734C99.3464 23.9661 99.2891 24.1927 99.2891 24.4531C99.2891 24.7188 99.349 24.9609 99.4688 25.1797C99.5885 25.3984 99.7682 25.5729 100.008 25.7031C100.253 25.8281 100.552 25.8906 100.906 25.8906C101.349 25.8906 101.74 25.7969 102.078 25.6094C102.417 25.4219 102.685 25.1927 102.883 24.9219C103.086 24.651 103.195 24.388 103.211 24.1328L103.828 24.8281C103.792 25.0469 103.693 25.2891 103.531 25.5547C103.37 25.8203 103.154 26.0755 102.883 26.3203C102.617 26.5599 102.299 26.7604 101.93 26.9219C101.565 27.0781 101.154 27.1562 100.695 27.1562C100.122 27.1562 99.6198 27.0443 99.1875 26.8203C98.7604 26.5964 98.4271 26.2969 98.1875 25.9219C97.9531 25.5417 97.8359 25.1172 97.8359 24.6484C97.8359 24.1953 97.9245 23.7969 98.1016 23.4531C98.2786 23.1042 98.5339 22.8151 98.8672 22.5859C99.2005 22.3516 99.6016 22.1745 100.07 22.0547C100.539 21.9349 101.062 21.875 101.641 21.875H103.32ZM112.523 22.2109V23.3828H108.055V22.2109H112.523ZM108.359 18.5469V27H106.914V18.5469H108.359ZM113.695 18.5469V27H112.242V18.5469H113.695ZM116.148 27V18.5469H117.594V25.8125H121.484V18.5469H122.938V27H116.148ZM123.938 25.8125L123.797 29.5078H122.508V27H121.406V25.8125H123.938ZM127.07 24.7109L130.969 18.5469H132.422V27H130.969V20.8359L127.07 27H125.633V18.5469H127.07V24.7109ZM136.453 22.9688H138.016L135.57 27H134.008L136.453 22.9688ZM137.664 18.5469H141.195V27H139.75V19.7188H137.664C137.253 19.7188 136.917 19.7891 136.656 19.9297C136.396 20.0651 136.206 20.2422 136.086 20.4609C135.966 20.6797 135.906 20.9062 135.906 21.1406C135.906 21.3698 135.961 21.5911 136.07 21.8047C136.18 22.013 136.352 22.1849 136.586 22.3203C136.82 22.4557 137.122 22.5234 137.492 22.5234H140.141V23.7109H137.492C137.008 23.7109 136.578 23.6458 136.203 23.5156C135.828 23.3854 135.51 23.2057 135.25 22.9766C134.99 22.7422 134.792 22.4688 134.656 22.1562C134.521 21.8385 134.453 21.4948 134.453 21.125C134.453 20.7552 134.523 20.4141 134.664 20.1016C134.81 19.7891 135.018 19.5156 135.289 19.2812C135.565 19.0469 135.901 18.8672 136.297 18.7422C136.698 18.612 137.154 18.5469 137.664 18.5469Z" fill="white"/>
<rect x="0.5" y="0.5" width="183" height="42" rx="21" stroke="url(#paint0_linear_74277_16769)"/>
<defs>
<linearGradient id="paint0_linear_74277_16769" x1="92" y1="0" x2="92" y2="43" gradientUnits="userSpaceOnUse">
<stop stop-color="#9293F8"/>
<stop offset="1" stop-color="#D08DF8"/>
</linearGradient>
</defs>
</svg>
