<svg width="50" height="50" viewBox="0 0 50 50" fill="none" xmlns="http://www.w3.org/2000/svg">
<path d="M40 20C40 16.0218 38.4196 12.2064 35.6066 9.3934C32.7936 6.58035 28.9782 5 25 5C21.0218 5 17.2064 6.58035 14.3934 9.3934C11.5804 12.2064 10 16.0218 10 20V47.5H5C3.67392 47.5 2.40215 46.9732 1.46447 46.0355C0.526784 45.0979 0 43.8261 0 42.5V32.5C0 31.1739 0.526784 29.9021 1.46447 28.9645C2.40215 28.0268 3.67392 27.5 5 27.5V20C5 14.6957 7.10714 9.60859 10.8579 5.85786C14.6086 2.10714 19.6957 0 25 0C30.3043 0 35.3914 2.10714 39.1421 5.85786C42.8929 9.60859 45 14.6957 45 20V27.5C46.3261 27.5 47.5979 28.0268 48.5355 28.9645C49.4732 29.9021 50 31.1739 50 32.5V42.5C50 43.8261 49.4732 45.0979 48.5355 46.0355C47.5979 46.9732 46.3261 47.5 45 47.5H40V20ZM30 25H37.5V50H30V25ZM12.5 25H20V50H12.5V25Z" fill="url(#paint0_linear_74277_16810)"/>
<defs>
<linearGradient id="paint0_linear_74277_16810" x1="25" y1="0" x2="25" y2="50" gradientUnits="userSpaceOnUse">
<stop stop-color="#9293F8"/>
<stop offset="1" stop-color="#D08DF8"/>
</linearGradient>
</defs>
</svg>
