<svg width="428" height="428" viewBox="0 0 428 428" fill="none" xmlns="http://www.w3.org/2000/svg">
<g clip-path="url(#clip0_74277_16849)">
<path fill-rule="evenodd" clip-rule="evenodd" d="M136.606 152.184C136.606 152.184 221.873 184.786 205.154 260.857C205.154 260.857 231.705 252.491 245.697 228.255C278.351 278.187 292.892 377.171 192.967 416.02C190.335 417.349 187.674 418.524 185.006 419.533C274.723 416.549 364.339 354.718 360.107 244.782C349.155 264.038 299.335 263.715 299.335 263.715C344.224 165.295 278.531 117.153 278.531 117.153C285.601 179.327 129.948 188.362 206.816 8.35938C41.4817 39.384 66.6678 252.266 66.6678 252.266C48.0517 249.059 11.9199 210.547 11.9199 210.547C-8.38113 356.325 86.6521 421.636 182.544 419.599C182.469 419.595 182.391 419.592 182.316 419.589C107.175 419.161 52.078 340.7 90.9168 267.865C108.579 234.737 145.439 185.139 136.606 152.184V152.184Z" fill="#4535FF"/>
<path fill-rule="evenodd" clip-rule="evenodd" d="M205.154 260.857C221.873 184.786 136.606 152.184 136.606 152.184C145.439 185.139 108.579 234.737 90.9168 267.862C52.078 340.697 107.175 419.161 182.316 419.589C122.464 416.751 65.7046 308.304 165.28 252.132C139.901 312.248 195.528 344.556 227.829 306.233C264.735 343.459 231.943 396.369 192.967 416.02C292.892 377.171 278.351 278.184 245.697 228.252C231.702 252.491 205.154 260.857 205.154 260.857V260.857Z" fill="#634EFF"/>
<path fill-rule="evenodd" clip-rule="evenodd" d="M227.829 306.234C195.524 344.556 139.901 312.252 165.28 252.135C65.7046 308.304 122.461 416.755 182.316 419.589H182.933C186.397 418.466 189.741 417.274 192.967 416.02C231.94 396.369 264.735 343.459 227.829 306.234V306.234Z" fill="#9293FB"/>
<path d="M368.46 244.458C368.314 240.726 365.714 237.546 362.086 236.657C358.462 235.776 354.684 237.402 352.839 240.648C348.199 248.805 329.132 253.321 312.126 254.803C330.229 207.39 323.137 172.041 313.402 150.131C301.82 124.06 284.213 110.955 283.468 110.41C280.791 108.448 277.205 108.255 274.332 109.924C271.458 111.589 269.848 114.799 270.221 118.097C272.056 134.241 259.712 142.271 254.318 144.971C242.18 151.055 222.885 151.74 209.21 138.875C186.975 117.956 188.905 71.5844 214.503 11.6412C215.714 8.80356 215.264 5.53162 213.334 3.12501C211.404 0.721669 208.305 -0.42449 205.272 0.143691C185.228 3.90544 163.775 11.5792 150.618 19.7002C146.69 22.1264 145.472 27.276 147.898 31.2043C150.321 35.1326 155.474 36.3538 159.402 33.9276C167.572 28.8858 180.027 23.8669 193.033 20.1933C162.511 100.885 182.433 136.638 197.751 151.051C217.38 169.514 244.065 168.809 261.809 159.92C273.156 154.232 281.072 145.513 284.765 135.142C289.121 140.478 294.038 147.727 298.123 156.919C311.459 186.935 309.304 221.699 291.723 260.243C290.548 262.823 290.757 265.821 292.282 268.211C293.81 270.598 296.439 272.054 299.276 272.071C299.808 272.074 312.625 272.13 326.996 269.71C336.845 268.054 345.064 265.628 351.617 262.457C347.614 334.786 300.527 371.725 271.37 387.771C259.206 394.465 246.285 399.716 232.979 403.53C235.973 401.26 238.827 398.896 241.534 396.427C254.906 384.247 264.82 369.654 270.994 353.06C272.604 348.733 270.403 343.92 266.077 342.31C261.75 340.7 256.937 342.901 255.327 347.227C254.011 350.764 252.496 354.18 250.801 357.478C255.409 335.998 249.524 316.249 233.762 300.346C232.11 298.681 229.831 297.776 227.486 297.881C225.142 297.975 222.944 299.05 221.432 300.846C209.921 314.505 194.313 318.319 181.666 310.567C169.943 303.38 160.633 284.617 172.977 255.385C174.368 252.09 173.509 248.276 170.841 245.895C168.17 243.515 164.284 243.097 161.169 244.85C136.355 258.849 119.117 276.757 109.925 298.077C101.902 316.689 100.481 337.268 105.814 357.582C108.566 368.058 113.05 378.128 118.928 387.245C111.397 380.704 104.841 372.985 99.6094 364.266C82.5737 335.874 82.0904 302.168 98.2869 271.797C101.882 265.057 106.339 257.533 111.061 249.569C127.117 222.472 144.937 192.395 146.246 166.141C153.538 170.19 162.988 176.27 171.844 184.473C194.741 205.685 203.201 230.78 196.984 259.058C196.344 261.974 197.307 265.008 199.508 267.022C201.709 269.034 204.814 269.723 207.662 268.825C208.684 268.505 229.325 261.821 245.008 243.577C252.656 258.124 258.028 274.647 260.401 291.213C261.055 295.784 265.293 298.955 269.861 298.302C274.43 297.649 277.604 293.41 276.951 288.842C273.63 265.664 265.012 242.522 252.689 223.677C251.098 221.245 248.365 219.811 245.459 219.896C242.556 219.978 239.904 221.558 238.451 224.073C232.241 234.829 223.045 242.107 215.525 246.659C217.066 218.694 205.931 193.077 182.799 171.832C162.629 153.308 140.518 144.73 139.588 144.374C136.655 143.25 133.338 143.867 131.003 145.97C128.672 148.077 127.715 151.309 128.528 154.343C134.608 177.034 113.576 212.526 96.677 241.043C91.8573 249.177 87.3053 256.857 83.5337 263.927C64.5062 299.608 65.1397 339.315 85.2742 372.867C90.2082 381.093 96.148 388.555 102.875 395.154C95.2174 391.604 87.9061 387.477 81.052 382.755C35.0261 351.064 13.076 296.816 18.33 228.83C31.4276 241.298 51.2584 258.092 65.2409 260.505C67.8402 260.949 70.4982 260.146 72.4117 258.33C74.3285 256.514 75.2722 253.902 74.962 251.283C74.8314 250.186 62.6188 140.837 116.609 71.0096C119.434 67.3556 118.764 62.1081 115.11 59.2835C111.456 56.459 106.209 57.1316 103.384 60.7824C72.882 100.235 62.2726 150.516 58.746 185.75C56.5223 207.984 56.7247 226.956 57.3027 239.077C44.6949 231.083 27.9532 215.413 18.01 204.823C15.8058 202.475 12.449 201.6 9.38278 202.576C6.31329 203.553 4.07975 206.201 3.63565 209.388C-7.86512 291.98 16.2597 358.441 71.5693 396.525C100.338 416.333 135.757 427.201 174.005 427.958C175.373 427.984 176.738 428.001 178.11 428.001C179.618 428.001 181.127 427.978 182.636 427.945C183.325 427.968 184.014 428.001 184.699 428.001C185.255 428.001 185.806 427.939 186.348 427.831C219.035 426.548 251.676 417.689 279.429 402.416C307.041 387.219 329.693 365.824 344.943 340.546C361.92 312.408 369.832 280.078 368.46 244.458V244.458ZM151.151 271.699C150.04 279.862 150.324 287.696 152.032 294.948C155.066 307.807 162.488 318.417 172.934 324.824C182.156 330.476 193.16 332.442 203.92 330.355C212.384 328.716 220.368 324.693 227.395 318.58C234.951 329.059 237.308 341.02 234.402 354.242C229.775 375.31 211.192 397.325 189.562 408.369C187.067 409.332 184.513 410.253 181.891 411.128C181.695 411.132 181.499 411.135 181.303 411.138C155.765 409.097 130.161 384.453 121.99 353.34C117.938 337.908 113.882 301.881 151.151 271.699V271.699Z" fill="black"/>
<path d="M261.691 313.901L261.688 314.067C261.528 318.681 265.136 322.551 269.75 322.711C269.848 322.714 269.946 322.717 270.047 322.717C274.527 322.717 278.237 319.161 278.394 314.648L278.403 314.39C278.537 309.776 274.906 305.923 270.292 305.789C265.662 305.652 261.828 309.287 261.691 313.901V313.901Z" fill="black"/>
<path d="M135.382 47.6521C135.382 52.2693 131.64 56.0115 127.022 56.0115C122.405 56.0115 118.663 52.2693 118.663 47.6521C118.663 43.0349 122.405 39.2927 127.022 39.2927C131.64 39.2927 135.382 43.0349 135.382 47.6521Z" fill="black"/>
</g>
<defs>
<clipPath id="clip0_74277_16849">
<rect width="428" height="428" fill="white"/>
</clipPath>
</defs>
</svg>
