<svg width="48" height="48" viewBox="0 0 48 48" fill="none" xmlns="http://www.w3.org/2000/svg">
<g clip-path="url(#clip0_74390_16730)">
<path d="M36.4454 1.40745C36.4454 0.63016 35.8153 0 35.038 0H33.5249C32.7476 0 32.1174 0.63016 32.1174 1.40745C32.1174 1.94978 32.4246 2.41959 32.8741 2.65463V14.4811H22.8231V12.799C22.8231 12.0217 22.193 11.3916 21.4157 11.3916C20.6384 11.3916 20.0082 12.0217 20.0082 12.799V14.4811H17.1934V12.799C17.1934 12.0217 16.5632 11.3916 15.7859 11.3916C15.0086 11.3916 14.3785 12.0217 14.3785 12.799V14.4811H12.962C12.1847 14.4811 11.5546 15.1113 11.5546 15.8886V41.1419C11.5546 44.9295 14.625 48 18.4127 48H28.8397C32.6273 48 35.6978 44.9295 35.6978 41.1419L35.6889 2.65463C36.1383 2.41959 36.4454 1.94969 36.4454 1.40745V1.40745ZM20.3756 41.1947H18.6257C17.8484 41.1947 17.2182 40.5646 17.2182 39.7873C17.2182 39.01 17.8484 38.3798 18.6257 38.3798H20.3756C21.1529 38.3798 21.783 39.01 21.783 39.7873C21.783 40.5646 21.1529 41.1947 20.3756 41.1947ZM20.3756 35.5649H18.6257C17.8484 35.5649 17.2182 34.9348 17.2182 34.1575C17.2182 33.3802 17.8484 32.75 18.6257 32.75H20.3756C21.1529 32.75 21.783 33.3802 21.783 34.1575C21.783 34.9348 21.1529 35.5649 20.3756 35.5649ZM27.882 41.1947H26.132C25.3548 41.1947 24.7246 40.5646 24.7246 39.7873C24.7246 39.01 25.3548 38.3798 26.132 38.3798H27.882C28.6593 38.3798 29.2894 39.01 29.2894 39.7873C29.2894 40.5646 28.6593 41.1947 27.882 41.1947ZM27.882 35.5649H26.132C25.3548 35.5649 24.7246 34.9348 24.7246 34.1575C24.7246 33.3802 25.3548 32.75 26.132 32.75H27.882C28.6593 32.75 29.2894 33.3802 29.2894 34.1575C29.2894 34.9348 28.6593 35.5649 27.882 35.5649ZM30.0343 28.5277C30.0343 29.305 29.4042 29.9352 28.6269 29.9352H18.6256C17.8483 29.9352 17.2181 29.305 17.2181 28.5277V22.6846C17.2181 21.9073 17.8483 21.2771 18.6256 21.2771H28.6269C29.4042 21.2771 30.0343 21.9073 30.0343 22.6846V28.5277Z" fill="#FFCB21"/>
<path d="M20.033 24.092H27.2194V27.1203H20.033V24.092Z" fill="#FFCB21"/>
</g>
<defs>
<clipPath id="clip0_74390_16730">
<rect width="48" height="48" fill="white"/>
</clipPath>
</defs>
</svg>
